<svg style="fill: red;" class="_3jFEC4X3IL9Zr-pzUzyCp7" xmlns="http://www.w3.org/2000/svg" viewBox="0 0 16 16"><path d="M2.3 5.4v1.7c0 .3-.1.5-.3.7-.3.2-.5.3-.9.3-.3 0-.5-.1-.8-.3-.2-.2-.3-.4-.3-.7V1C0 .7.1.5.3.3.6.1.8 0 1.1 0h3c1 0 1.7.2 2.3.6.7.5 1 1.2 1 2.1 0 .8-.3 1.4-1 2 0 .1-.2.1-.3.2l1.2 1.7c.1.1.2.3.2.5 0 .3-.1.5-.3.7-.3.2-.6.3-.9.3-.4 0-.8-.2-1-.5L3.9 5.4H2.3zM4 1.8H2.3v1.9H4c.3 0 .5-.1.8-.2.2-.2.3-.4.3-.8 0-.3-.1-.6-.3-.7-.2-.2-.5-.2-.8-.2zM9.9 0h2.9c.9 0 1.6.2 2.2.6.6.6 1 1.3 1 2.3 0 1-.4 1.8-1.2 2.3-.5.4-1.2.6-2 .6H11v1.4c0 .3-.1.5-.3.7-.2.1-.5.2-.8.2s-.6-.1-.8-.3c-.3-.2-.4-.4-.4-.7V1c0-.3.1-.5.3-.7.3-.2.6-.3.9-.3zm3.8 2.9c0-.4-.2-.7-.5-.9-.2-.1-.5-.2-.8-.2H11V4h1.4c.3 0 .6-.1.8-.2.3-.2.5-.5.5-.9zM7.4 11.3v3.8c0 .3-.1.5-.3.7-.3.1-.6.2-.9.2-.3 0-.6-.1-.8-.3-.2-.2-.3-.4-.3-.7v-1.3H2.3V15c0 .3-.1.5-.3.7-.3.2-.5.3-.9.3-.3 0-.6-.1-.8-.3-.2-.2-.3-.4-.3-.6v-3.8c0-.5.1-1 .4-1.4s.6-.8 1-1.1c.6-.4 1.4-.6 2.3-.6.9 0 1.7.2 2.3.6.5.3.8.7 1 1.1s.4.9.4 1.4zM3.7 10c-.4 0-.7.1-.9.3-.3.2-.5.6-.5 1.1v.6h2.8v-.6c0-.5-.2-.9-.5-1.1-.2-.2-.5-.3-.9-.3zm8.4 0c-.6 0-1 .2-1.3.5-.2.2-.3.6-.3 1.1v3.6c0 .3-.1.5-.3.7-.2 0-.5.1-.8.1-.3 0-.6-.1-.8-.3-.2-.2-.3-.4-.3-.7v-3.8c0-.8.3-1.5.8-2.1.7-.7 1.7-1.1 3.1-1.1 1.4 0 2.4.4 3.1 1.1.5.5.8 1.2.8 2.1V15c0 .3-.1.5-.3.7-.2.2-.5.3-.8.3-.3 0-.6-.1-.8-.3-.2-.2-.3-.4-.3-.7v-3.6c0-.5-.1-.8-.3-1.1-.5-.2-.9-.3-1.5-.3z"></path></svg>
